<?xml version="1.0" standalone="no"?><!DOCTYPE svg PUBLIC "-//W3C//DTD SVG 1.1//EN" "http://www.w3.org/Graphics/SVG/1.1/DTD/svg11.dtd"><svg width="100%" height="100%" viewBox="0 0 772 250" version="1.1" xmlns="http://www.w3.org/2000/svg" xmlns:xlink="http://www.w3.org/1999/xlink" xml:space="preserve" style="fill-rule:evenodd;clip-rule:evenodd;stroke-linejoin:round;stroke-miterlimit:1.41421;"><rect x="386" y="0" width="386" height="250" style="fill:#0085ba;"/><rect x="0" y="0" width="386" height="250" style="fill:#eee;"/><path d="M261.938,68.541c1.583,3.255 6.312,10.55 14.187,21.883c7.875,11.334 14.604,19.693 20.188,25.079c1.791,1.728 4.718,3.426 8.781,5.094c4.062,1.668 8.062,2.702 12,3.104c3.937,0.402 6.989,-0.321 9.156,-2.17c1.958,-2.21 2.667,-5.215 2.125,-9.012c-0.542,-3.798 -1.687,-7.566 -3.438,-11.304c-1.75,-3.738 -3.583,-6.651 -5.5,-8.741c-5.125,-5.426 -13.447,-11.926 -24.968,-19.502c-11.521,-7.576 -19.177,-12.268 -22.969,-14.077l-1.125,-0.301c-0.792,-0.241 -1.823,-0.241 -3.094,0c-1.271,0.241 -2.406,0.824 -3.406,1.748c-1.083,1.005 -1.771,2.231 -2.063,3.677c-0.291,1.447 -0.375,2.472 -0.25,3.075c0.125,0.603 0.25,1.085 0.375,1.447ZM367.75,153.422c-2.75,-1.728 -4.979,-3.648 -6.688,-5.757c-1.708,-2.11 -2.947,-4.14 -3.718,-6.089c-0.771,-1.949 -1.479,-3.858 -2.125,-5.727c-0.646,-1.869 -1.584,-3.728 -2.813,-5.577c-1.229,-1.848 -2.844,-3.456 -4.844,-4.822c-2.833,-2.01 -6.093,-2.894 -9.781,-2.653c-3.687,0.241 -6.844,1.708 -9.468,4.401c-2.125,2.21 -3.198,5.526 -3.219,9.947c-0.021,4.421 1.385,8.058 4.219,10.911c3.166,2.814 6.947,4.853 11.343,6.119c4.396,1.266 8.854,1.799 13.375,1.598c4.521,-0.201 9.094,-0.985 13.719,-2.351Z" style="fill:#0085ba;fill-rule:nonzero;"/><path d="M420.25,90.028l0,18.086l-12.5,9.043l0,-39.185l68.75,0l0,-12.057l25,18.145l-25,18.025l0,-12.057l-56.25,0ZM482.75,126.199l0,-18.085l12.5,-9.043l0,39.185l-68.75,0l0,12.057l-25,-18.146l25,-18.025l0,12.057l56.25,0Z" style="fill:#eee;fill-rule:nonzero;"/><rect x="385.5" y="0" width="1" height="250" style="fill:#ddd;"/></svg>