<?xml version="1.0" standalone="no"?><!DOCTYPE svg PUBLIC "-//W3C//DTD SVG 1.1//EN" "http://www.w3.org/Graphics/SVG/1.1/DTD/svg11.dtd"><svg width="100%" height="100%" viewBox="0 0 128 128" version="1.1" xmlns="http://www.w3.org/2000/svg" xmlns:xlink="http://www.w3.org/1999/xlink" xml:space="preserve" style="fill-rule:evenodd;clip-rule:evenodd;stroke-linejoin:round;stroke-miterlimit:1.41421;"><rect x="64" y="0" width="64" height="128" style="fill:#0085ba;"/><rect x="0" y="0" width="64" height="128" style="fill:#eee;"/><path d="M9.093,47.287c0.696,1.432 2.777,4.642 6.242,9.629c3.465,4.986 6.426,8.664 8.883,11.034c0.788,0.76 2.076,1.508 3.863,2.241c1.788,0.734 3.548,1.19 5.28,1.367c1.733,0.176 3.076,-0.142 4.029,-0.955c0.862,-0.973 1.173,-2.295 0.935,-3.966c-0.238,-1.671 -0.742,-3.329 -1.512,-4.973c-0.77,-1.645 -1.577,-2.927 -2.42,-3.847c-2.255,-2.387 -5.918,-5.247 -10.987,-8.58c-5.069,-3.334 -8.438,-5.398 -10.106,-6.194l-0.495,-0.133c-0.348,-0.106 -0.802,-0.106 -1.361,0c-0.559,0.106 -1.059,0.363 -1.499,0.769c-0.477,0.443 -0.779,0.982 -0.907,1.618c-0.129,0.637 -0.165,1.088 -0.11,1.353c0.055,0.266 0.11,0.478 0.165,0.637ZM55.65,84.634c-1.21,-0.76 -2.191,-1.604 -2.942,-2.533c-0.752,-0.928 -1.298,-1.821 -1.637,-2.679c-0.339,-0.857 -0.651,-1.697 -0.935,-2.52c-0.284,-0.822 -0.696,-1.64 -1.237,-2.453c-0.541,-0.814 -1.251,-1.521 -2.131,-2.122c-1.247,-0.884 -2.682,-1.273 -4.304,-1.167c-1.623,0.106 -3.011,0.751 -4.166,1.936c-0.935,0.973 -1.408,2.431 -1.417,4.377c-0.009,1.945 0.61,3.545 1.857,4.801c1.393,1.238 3.057,2.135 4.991,2.692c1.934,0.557 3.896,0.791 5.885,0.703c1.989,-0.088 4.001,-0.433 6.036,-1.035Z" style="fill:#0085ba;fill-rule:nonzero;"/><path d="M82.25,56.335l0,7.958l-5.5,3.978l0,-17.241l30.25,0l0,-5.305l11,7.984l-11,7.931l0,-5.305l-24.75,0ZM109.75,72.25l0,-7.957l5.5,-3.979l0,17.241l-30.25,0l0,5.305l-11,-7.984l11,-7.931l0,5.305l24.75,0Z" style="fill:#eee;fill-rule:nonzero;"/><rect x="63.5" y="0" width="1" height="128" style="fill:#ddd;"/></svg>